<svg width="100" height="100" viewBox="0 0 100 100" fill="none" xmlns="http://www.w3.org/2000/svg">
<path d="M50 12.5C70.625 12.5 87.5 29.375 87.5 50C87.5 70.625 70.625 87.5 50 87.5C29.375 87.5 12.5 70.625 12.5 50C12.5 29.375 29.375 12.5 50 12.5ZM50 6.25C25.9375 6.25 6.25 25.9375 6.25 50C6.25 74.0625 25.9375 93.75 50 93.75C74.0625 93.75 93.75 74.0625 93.75 50C93.75 25.9375 74.0625 6.25 50 6.25Z" fill="#038C33"/>
<path d="M75 46.875H53.125V25H46.875V46.875H25V53.125H46.875V75H53.125V53.125H75V46.875Z" fill="#038C33"/>
</svg>
