<svg width="846" height="361" viewBox="0 0 846 361" fill="none" xmlns="http://www.w3.org/2000/svg">
<g clip-path="url(#clip0)">
<path d="M713.193 347.354H296.717C296.411 347.354 296.117 347.232 295.901 347.016C295.685 346.799 295.563 346.506 295.563 346.2V73.9326C295.564 73.6272 295.686 73.3347 295.902 73.119C296.118 72.9034 296.411 72.7823 296.717 72.7823C297.022 72.7823 297.315 72.9034 297.531 73.119C297.747 73.3347 297.869 73.6272 297.87 73.9326V345.046H713.193C713.499 345.047 713.791 345.169 714.007 345.385C714.222 345.602 714.344 345.894 714.344 346.2C714.344 346.505 714.222 346.798 714.007 347.014C713.791 347.231 713.499 347.353 713.193 347.354Z" fill="#3F3D56"/>
<path d="M713.193 293.131H296.717C296.411 293.13 296.119 293.008 295.903 292.792C295.687 292.575 295.566 292.283 295.566 291.977C295.566 291.672 295.687 291.379 295.903 291.163C296.119 290.946 296.411 290.824 296.717 290.823H713.193C713.499 290.824 713.791 290.946 714.007 291.163C714.222 291.379 714.344 291.672 714.344 291.977C714.344 292.283 714.222 292.575 714.007 292.792C713.791 293.008 713.499 293.13 713.193 293.131Z" fill="#3F3D56"/>
<path d="M713.77 249.291H297.293C296.987 249.291 296.694 249.17 296.478 248.953C296.261 248.737 296.14 248.443 296.14 248.137C296.14 247.832 296.261 247.538 296.478 247.322C296.694 247.105 296.987 246.984 297.293 246.984H713.77C714.075 246.985 714.368 247.107 714.584 247.323C714.799 247.539 714.92 247.832 714.92 248.137C714.92 248.443 714.799 248.736 714.584 248.952C714.368 249.168 714.075 249.29 713.77 249.291Z" fill="#3F3D56"/>
<path d="M713.77 205.452H297.293C296.988 205.451 296.695 205.329 296.48 205.112C296.264 204.896 296.143 204.603 296.143 204.298C296.143 203.992 296.264 203.7 296.48 203.483C296.695 203.267 296.988 203.145 297.293 203.144H713.77C714.075 203.145 714.368 203.267 714.584 203.483C714.799 203.7 714.92 203.992 714.92 204.298C714.92 204.603 714.799 204.896 714.584 205.112C714.368 205.329 714.075 205.451 713.77 205.452Z" fill="#3F3D56"/>
<path d="M713.77 161.612H297.293C296.987 161.612 296.694 161.49 296.478 161.274C296.261 161.058 296.14 160.764 296.14 160.458C296.14 160.152 296.261 159.859 296.478 159.642C296.694 159.426 296.987 159.305 297.293 159.305H713.77C714.076 159.305 714.37 159.426 714.586 159.642C714.802 159.859 714.924 160.152 714.924 160.458C714.924 160.764 714.802 161.058 714.586 161.274C714.37 161.49 714.076 161.612 713.77 161.612Z" fill="#3F3D56"/>
<path d="M713.77 117.772H297.293C296.987 117.772 296.694 117.651 296.478 117.434C296.261 117.218 296.14 116.925 296.14 116.619C296.14 116.313 296.261 116.019 296.478 115.803C296.694 115.586 296.987 115.465 297.293 115.465H713.77C714.076 115.465 714.37 115.586 714.586 115.803C714.802 116.019 714.924 116.313 714.924 116.619C714.924 116.925 714.802 117.218 714.586 117.434C714.37 117.651 714.076 117.772 713.77 117.772Z" fill="#3F3D56"/>
<path d="M713.77 73.9326H297.293C296.988 73.9317 296.695 73.8098 296.48 73.5935C296.264 73.3773 296.143 73.0843 296.143 72.7789C296.143 72.4736 296.264 72.1806 296.48 71.9644C296.695 71.7481 296.988 71.6262 297.293 71.6253H713.77C714.075 71.6262 714.368 71.7481 714.584 71.9644C714.799 72.1806 714.92 72.4736 714.92 72.7789C714.92 73.0843 714.799 73.3773 714.584 73.5935C714.368 73.8098 714.075 73.9317 713.77 73.9326Z" fill="#3F3D56"/>
<path d="M337.581 345.405H323.038C321.249 345.403 319.535 344.692 318.271 343.428C317.006 342.163 316.295 340.449 316.293 338.66V298.55C316.295 296.761 317.006 295.047 318.271 293.782C319.535 292.518 321.249 291.807 323.038 291.805H337.581C339.369 291.807 341.084 292.518 342.348 293.782C343.613 295.047 344.324 296.761 344.326 298.55V338.66C344.324 340.449 343.613 342.163 342.348 343.428C341.084 344.692 339.369 345.403 337.581 345.405Z" fill="#3F3D56"/>
<path d="M398.149 345.405H383.606C381.817 345.403 380.103 344.692 378.838 343.428C377.574 342.163 376.863 340.449 376.861 338.66V264.587C376.863 262.799 377.574 261.084 378.838 259.82C380.103 258.555 381.817 257.844 383.606 257.842H398.149C399.937 257.844 401.652 258.555 402.916 259.82C404.181 261.084 404.892 262.799 404.894 264.587V338.66C404.892 340.449 404.181 342.163 402.916 343.428C401.652 344.692 399.937 345.403 398.149 345.405Z" fill="#3F3D56"/>
<path d="M519.285 345.405H504.742C502.953 345.403 501.239 344.692 499.974 343.428C498.71 342.163 497.999 340.449 497.997 338.66V184.672C497.999 182.884 498.71 181.169 499.974 179.905C501.239 178.641 502.953 177.929 504.742 177.927H519.285C521.073 177.929 522.788 178.641 524.052 179.905C525.316 181.169 526.028 182.884 526.03 184.672V338.66C526.028 340.449 525.316 342.163 524.052 343.428C522.788 344.692 521.073 345.403 519.285 345.405Z" fill="#E6E6E6"/>
<path d="M458.14 345.405H443.597C441.808 345.403 440.094 344.692 438.83 343.428C437.565 342.163 436.854 340.449 436.852 338.66V237.405C436.854 235.617 437.565 233.902 438.83 232.638C440.094 231.373 441.808 230.662 443.597 230.66H458.14C459.928 230.662 461.643 231.373 462.907 232.638C464.172 233.902 464.883 235.617 464.885 237.405V338.66C464.883 340.449 464.172 342.163 462.907 343.428C461.643 344.692 459.928 345.403 458.14 345.405Z" fill="#3F3D56"/>
<path d="M579.853 345.405H565.309C563.521 345.403 561.807 344.692 560.542 343.428C559.278 342.163 558.566 340.449 558.564 338.66V144.144C558.566 142.356 559.278 140.641 560.542 139.377C561.807 138.112 563.521 137.401 565.309 137.399H579.853C581.641 137.401 583.356 138.112 584.62 139.377C585.885 140.641 586.596 142.356 586.598 144.144V338.66C586.596 340.449 585.885 342.163 584.62 343.428C583.356 344.692 581.641 345.403 579.853 345.405Z" fill="#3F3D56"/>
<path d="M640.421 345.405H625.877C624.089 345.403 622.375 344.692 621.11 343.428C619.846 342.163 619.134 340.449 619.132 338.66V184.672C619.134 182.884 619.846 181.169 621.11 179.905C622.375 178.641 624.089 177.929 625.877 177.927H640.421C642.209 177.929 643.924 178.641 645.188 179.905C646.453 181.169 647.164 182.884 647.166 184.672V338.66C647.164 340.449 646.453 342.163 645.188 343.428C643.924 344.692 642.209 345.403 640.421 345.405Z" fill="#3F3D56"/>
<path d="M700.989 345.405H686.445C684.657 345.403 682.943 344.692 681.678 343.428C680.414 342.163 679.702 340.449 679.7 338.66V78.1976C679.702 76.4093 680.414 74.6949 681.678 73.4304C682.943 72.1659 684.657 71.4546 686.445 71.4526H700.989C702.777 71.4546 704.491 72.1659 705.756 73.4304C707.02 74.6949 707.732 76.4093 707.734 78.1976V338.66C707.732 340.449 707.02 342.163 705.756 343.428C704.491 344.692 702.777 345.403 700.989 345.405Z" fill="#E6E6E6"/>
<path d="M508.038 117.171C531.241 117.171 550.05 98.3614 550.05 75.1587C550.05 51.9559 531.241 33.1463 508.038 33.1463C484.835 33.1463 466.025 51.9559 466.025 75.1587C466.025 98.3614 484.835 117.171 508.038 117.171Z" fill="#2F2E41"/>
<path d="M492.062 102.761L471.615 113.001L477.33 124.413L497.777 114.173L492.062 102.761Z" fill="#2F2E41"/>
<path d="M480.026 123.255C481.238 121.416 478.246 117.303 473.342 114.07C468.438 110.837 463.479 109.706 462.267 111.545C461.054 113.384 464.047 117.496 468.951 120.73C473.855 123.963 478.813 125.094 480.026 123.255Z" fill="#2F2E41"/>
<path d="M524.014 102.761L518.299 114.173L538.746 124.413L544.461 113.001L524.014 102.761Z" fill="#2F2E41"/>
<path d="M547.125 120.73C552.029 117.496 555.022 113.384 553.809 111.545C552.597 109.706 547.638 110.836 542.734 114.07C537.83 117.303 534.837 121.416 536.05 123.255C537.262 125.094 542.221 123.963 547.125 120.73Z" fill="#2F2E41"/>
<path d="M505.097 79.2409C513.027 79.2409 519.455 72.8123 519.455 64.8822C519.455 56.9522 513.027 50.5236 505.097 50.5236C497.167 50.5236 490.738 56.9522 490.738 64.8822C490.738 72.8123 497.167 79.2409 505.097 79.2409Z" fill="white"/>
<path d="M508.589 74.1296C510.451 72.2682 510.44 69.2397 508.565 67.3652C506.691 65.4907 503.662 65.48 501.801 67.3413C499.94 69.2027 499.95 72.2312 501.825 74.1057C503.699 75.9802 506.728 75.9909 508.589 74.1296Z" fill="#3F3D56"/>
<path d="M541.18 29.4538C541.811 13.9002 528.407 0.726162 511.239 0.0288323C494.071 -0.668498 479.642 11.3748 479.01 26.9284C478.378 42.482 490.312 46.0159 507.48 46.7133C524.647 47.4107 540.548 45.0073 541.18 29.4538Z" fill="#00BF59"/>
<path d="M565.397 97.1578C568.16 94.7855 564.274 85.7264 556.717 76.9237C549.161 68.1211 540.794 62.9083 538.031 65.2806C535.268 67.6529 539.153 76.712 546.71 85.5147C554.267 94.3173 562.633 99.5301 565.397 97.1578Z" fill="#2F2E41"/>
<path d="M469.483 85.5146C477.04 76.712 480.926 67.6529 478.162 65.2806C475.399 62.9083 467.033 68.121 459.476 76.9237C451.919 85.7263 448.033 94.7854 450.797 97.1577C453.56 99.5301 461.926 94.3172 469.483 85.5146Z" fill="#2F2E41"/>
<path d="M519.577 91.7152C519.802 92.952 519.781 94.221 519.516 95.4497C519.25 96.6785 518.746 97.843 518.03 98.8767C517.315 99.9104 516.403 100.793 515.347 101.474C514.29 102.156 513.11 102.622 511.873 102.847C510.637 103.072 509.368 103.052 508.139 102.787C506.91 102.521 505.746 102.017 504.712 101.301C503.678 100.586 502.795 99.674 502.114 98.6175C501.433 97.5611 500.966 96.3808 500.741 95.1441L500.738 95.1256C499.796 89.9234 503.818 88.0826 509.02 87.1408C514.223 86.1991 518.635 86.5131 519.577 91.7152Z" fill="white"/>
<path d="M844.253 311.945C847.116 309.549 843.247 300.214 835.613 291.095C827.978 281.976 819.468 276.527 816.605 278.924C813.743 281.321 817.611 290.656 825.246 299.774C832.881 308.893 841.391 314.342 844.253 311.945Z" fill="#2F2E41"/>
<path d="M825.48 301.576C833.001 279.011 820.806 254.621 798.241 247.1C775.676 239.578 751.287 251.773 743.765 274.338C736.243 296.903 748.438 321.293 771.003 328.814C793.568 336.336 817.958 324.141 825.48 301.576Z" fill="#2F2E41"/>
<path d="M802.851 321.756H789.767V345.198H802.851V321.756Z" fill="#2F2E41"/>
<path d="M776.684 321.756H763.6V345.198H776.684V321.756Z" fill="#2F2E41"/>
<path d="M791.948 349.559C797.97 349.559 802.851 347.729 802.851 345.471C802.851 343.213 797.97 341.382 791.948 341.382C785.926 341.382 781.045 343.213 781.045 345.471C781.045 347.729 785.926 349.559 791.948 349.559Z" fill="#2F2E41"/>
<path d="M765.78 349.014C771.802 349.014 776.684 347.184 776.684 344.926C776.684 342.667 771.802 340.837 765.78 340.837C759.759 340.837 754.877 342.667 754.877 344.926C754.877 347.184 759.759 349.014 765.78 349.014Z" fill="#2F2E41"/>
<path d="M771.099 233.82C774.945 218.333 791.92 209.219 809.014 213.464C826.108 217.708 836.848 233.704 833.003 249.191C829.157 264.678 816.399 264.728 799.305 260.483C782.211 256.239 767.254 249.307 771.099 233.82Z" fill="#CCCCCC"/>
<path d="M755.57 277.201C757.17 273.828 749.756 266.962 739.011 261.865C728.266 256.769 718.258 255.372 716.658 258.745C715.058 262.119 722.472 268.985 733.217 274.081C743.963 279.178 753.97 280.574 755.57 277.201Z" fill="#2F2E41"/>
<path d="M778.184 293.228C786.114 293.228 792.542 286.799 792.542 278.869C792.542 270.939 786.114 264.511 778.184 264.511C770.254 264.511 763.825 270.939 763.825 278.869C763.825 286.799 770.254 293.228 778.184 293.228Z" fill="white"/>
<path d="M772.282 278.509C774.926 278.509 777.068 276.366 777.068 273.723C777.068 271.079 774.926 268.936 772.282 268.936C769.639 268.936 767.496 271.079 767.496 273.723C767.496 276.366 769.639 278.509 772.282 278.509Z" fill="#3F3D56"/>
<path d="M787.191 308.785C787.644 311.282 787.086 313.856 785.642 315.942C784.197 318.028 781.983 319.455 779.486 319.91C776.99 320.364 774.415 319.809 772.328 318.366C770.241 316.923 768.812 314.71 768.356 312.214L768.352 312.195C767.41 306.993 771.433 305.152 776.635 304.21C781.837 303.269 786.249 303.583 787.191 308.785Z" fill="white"/>
<path d="M726.164 360.271H711.621C709.832 360.269 708.118 359.558 706.853 358.293C705.589 357.029 704.878 355.314 704.876 353.526V93.0631C704.878 91.2748 705.589 89.5604 706.853 88.2959C708.118 87.0314 709.832 86.3202 711.621 86.3182H726.164C727.952 86.3202 729.667 87.0314 730.931 88.2959C732.196 89.5604 732.907 91.2748 732.909 93.0631V353.526C732.907 355.314 732.196 357.029 730.931 358.293C729.667 359.558 727.952 360.269 726.164 360.271Z" fill="#00BF59"/>
<path d="M114.144 331.024C137.93 331.024 157.212 311.742 157.212 287.957C157.212 264.171 137.93 244.889 114.144 244.889C90.3588 244.889 71.0769 264.171 71.0769 287.957C71.0769 311.742 90.3588 331.024 114.144 331.024Z" fill="#2F2E41"/>
<path d="M107.602 321.756H94.5186V345.198H107.602V321.756Z" fill="#2F2E41"/>
<path d="M133.77 321.756H120.686V345.198H133.77V321.756Z" fill="#2F2E41"/>
<path d="M105.422 349.559C111.443 349.559 116.325 347.729 116.325 345.471C116.325 343.213 111.443 341.382 105.422 341.382C99.4 341.382 94.5185 343.213 94.5185 345.471C94.5185 347.729 99.4 349.559 105.422 349.559Z" fill="#2F2E41"/>
<path d="M131.589 349.014C137.611 349.014 142.492 347.184 142.492 344.926C142.492 342.667 137.611 340.837 131.589 340.837C125.568 340.837 120.686 342.667 120.686 344.926C120.686 347.184 125.568 349.014 131.589 349.014Z" fill="#2F2E41"/>
<path d="M115.235 291.773C123.364 291.773 129.954 285.183 129.954 277.054C129.954 268.924 123.364 262.334 115.235 262.334C107.105 262.334 100.515 268.924 100.515 277.054C100.515 285.183 107.105 291.773 115.235 291.773Z" fill="white"/>
<path d="M115.235 281.96C117.944 281.96 120.141 279.763 120.141 277.054C120.141 274.344 117.944 272.147 115.235 272.147C112.525 272.147 110.328 274.344 110.328 277.054C110.328 279.763 112.525 281.96 115.235 281.96Z" fill="#3F3D56"/>
<path d="M72.3674 247.905C68.89 232.332 80.0061 216.595 97.1961 212.757C114.386 208.918 131.14 218.432 134.618 234.006C138.095 249.579 126.703 255.323 109.513 259.162C92.323 263 75.8449 263.479 72.3674 247.905Z" fill="#CCCCCC"/>
<path d="M145.547 134.098C149.793 122.989 150.408 112.903 146.92 111.57C143.433 110.237 137.164 118.162 132.918 129.271C128.672 140.38 128.057 150.466 131.544 151.799C135.031 153.132 141.301 145.207 145.547 134.098Z" fill="#2F2E41"/>
<path d="M141.936 171.105C145.746 147.627 129.802 125.505 106.324 121.695C82.8452 117.885 60.7237 133.829 56.9137 157.308C53.1037 180.786 69.048 202.908 92.5263 206.718C116.005 210.528 138.126 194.583 141.936 171.105Z" fill="#2F2E41"/>
<path d="M92.8831 198.006H79.7993V221.448H92.8831V198.006Z" fill="#2F2E41"/>
<path d="M119.051 198.006H105.967V221.448H119.051V198.006Z" fill="#2F2E41"/>
<path d="M90.7025 225.809C96.7241 225.809 101.606 223.978 101.606 221.72C101.606 219.462 96.7241 217.632 90.7025 217.632C84.6809 217.632 79.7993 219.462 79.7993 221.72C79.7993 223.978 84.6809 225.809 90.7025 225.809Z" fill="#2F2E41"/>
<path d="M116.87 225.264C122.892 225.264 127.773 223.433 127.773 221.175C127.773 218.917 122.892 217.086 116.87 217.086C110.848 217.086 105.967 218.917 105.967 221.175C105.967 223.433 110.848 225.264 116.87 225.264Z" fill="#2F2E41"/>
<path d="M100.948 168.016C109.073 167.777 115.467 160.997 115.228 152.871C114.989 144.745 108.209 138.352 100.083 138.59C91.9573 138.829 85.5636 145.61 85.8024 153.736C86.0412 161.861 92.822 168.255 100.948 168.016Z" fill="white"/>
<path d="M100.515 158.21C103.225 158.21 105.422 156.013 105.422 153.303C105.422 150.593 103.225 148.397 100.515 148.397C97.8055 148.397 95.6089 150.593 95.6089 153.303C95.6089 156.013 97.8055 158.21 100.515 158.21Z" fill="#3F3D56"/>
<path d="M57.6482 124.155C54.1708 108.581 65.2869 92.8445 82.4768 89.0061C99.6668 85.1677 116.421 94.6812 119.899 110.255C123.376 125.829 111.984 131.573 94.7937 135.411C77.6037 139.249 61.1257 139.729 57.6482 124.155Z" fill="#00BF59"/>
<path d="M70.3731 153.451C71.973 150.077 64.5591 143.211 53.8137 138.115C43.0683 133.019 33.0604 131.622 31.4605 134.995C29.8606 138.368 37.2745 145.234 48.0199 150.331C58.7653 155.427 68.7732 156.824 70.3731 153.451Z" fill="#2F2E41"/>
<path d="M78.2704 179.743C78.2704 183.958 89.1237 192.282 101.167 192.282C113.21 192.282 124.502 180.415 124.502 176.2C124.502 171.985 113.21 177.017 101.167 177.017C89.1238 177.017 78.2704 175.528 78.2704 179.743Z" fill="white"/>
<path d="M517.987 231.712L503.873 235.22C502.137 235.649 500.302 235.372 498.77 234.45C497.238 233.528 496.134 232.036 495.701 230.301L458.563 80.8577C458.134 79.1218 458.411 77.2864 459.333 75.7543C460.255 74.2222 461.747 73.1184 463.482 72.6852L477.596 69.1778C479.332 68.7485 481.168 69.0253 482.7 69.9475C484.232 70.8697 485.336 72.362 485.769 74.0969L522.906 223.54C523.336 225.276 523.059 227.111 522.137 228.643C521.214 230.175 519.722 231.279 517.987 231.712Z" fill="#00BF59"/>
<path d="M182.536 154.975L150.835 161.164C150.322 161.265 149.792 161.249 149.286 161.115C148.78 160.981 148.311 160.734 147.915 160.391C147.511 160.045 147.191 159.611 146.981 159.122C146.77 158.633 146.673 158.103 146.698 157.571C147.239 144.572 144.712 131.627 139.322 119.785C139.099 119.302 138.989 118.774 139.001 118.242C139.012 117.71 139.145 117.188 139.389 116.715C139.627 116.249 139.969 115.843 140.387 115.529C140.806 115.214 141.291 115 141.805 114.901L173.506 108.713C174.316 108.556 175.156 108.692 175.875 109.097C176.595 109.502 177.147 110.148 177.434 110.922C182.124 123.949 184.792 137.617 185.346 151.451C185.371 152.276 185.102 153.083 184.587 153.728C184.073 154.374 183.346 154.816 182.536 154.975Z" fill="#3F3D56"/>
<path d="M43.5364 183.975L11.835 190.164C11.3216 190.265 10.7917 190.249 10.2856 190.115C9.77961 189.981 9.3108 189.734 8.9149 189.391C8.51091 189.045 8.19133 188.611 7.98049 188.122C7.76966 187.633 7.67312 187.103 7.69825 186.571C8.23905 173.572 5.71224 160.627 0.322259 148.785C0.0991341 148.302 -0.0108082 147.774 0.000802141 147.242C0.0124125 146.71 0.145271 146.188 0.38926 145.715C0.627338 145.249 0.968636 144.843 1.38719 144.529C1.80573 144.214 2.29049 144 2.80453 143.901L34.506 137.713C35.3164 137.556 36.156 137.692 36.8753 138.097C37.5947 138.502 38.1472 139.148 38.4344 139.922C43.1237 152.949 45.7917 166.617 46.3457 180.451C46.3705 181.276 46.1018 182.083 45.5874 182.728C45.0729 183.374 44.3462 183.816 43.5364 183.975Z" fill="#CCCCCC"/>
<path d="M250.924 83.7789C256.999 83.7789 261.924 78.8541 261.924 72.7789C261.924 66.7038 256.999 61.7789 250.924 61.7789C244.849 61.7789 239.924 66.7038 239.924 72.7789C239.924 78.8541 244.849 83.7789 250.924 83.7789Z" fill="#E6E6E6"/>
<path d="M250.924 127.619C256.999 127.619 261.924 122.694 261.924 116.619C261.924 110.543 256.999 105.619 250.924 105.619C244.849 105.619 239.924 110.543 239.924 116.619C239.924 122.694 244.849 127.619 250.924 127.619Z" fill="#E6E6E6"/>
<path d="M250.924 171.458C256.999 171.458 261.924 166.533 261.924 160.458C261.924 154.383 256.999 149.458 250.924 149.458C244.849 149.458 239.924 154.383 239.924 160.458C239.924 166.533 244.849 171.458 250.924 171.458Z" fill="#E6E6E6"/>
<path d="M250.924 215.298C256.999 215.298 261.924 210.373 261.924 204.298C261.924 198.223 256.999 193.298 250.924 193.298C244.849 193.298 239.924 198.223 239.924 204.298C239.924 210.373 244.849 215.298 250.924 215.298Z" fill="#E6E6E6"/>
<path d="M250.924 259.138C256.999 259.138 261.924 254.213 261.924 248.138C261.924 242.062 256.999 237.138 250.924 237.138C244.849 237.138 239.924 242.062 239.924 248.138C239.924 254.213 244.849 259.138 250.924 259.138Z" fill="#E6E6E6"/>
<path d="M250.924 302.977C256.999 302.977 261.924 298.052 261.924 291.977C261.924 285.902 256.999 280.977 250.924 280.977C244.849 280.977 239.924 285.902 239.924 291.977C239.924 298.052 244.849 302.977 250.924 302.977Z" fill="#E6E6E6"/>
</g>
<defs>
<clipPath id="clip0">
<rect width="845.197" height="360.271" fill="white"/>
</clipPath>
</defs>
</svg>
