<svg width="16" height="16" viewBox="0 0 16 16" fill="none" xmlns="http://www.w3.org/2000/svg">
<path d="M6.5 1V3L5.5 3.5L4 2L2 4L3.5 5.5L3 6.5H1V9.5H3L3.5 10.5L2 12L4 14L5.5 12.5L6.5 13V15H9.5V13L10.5 12.5L12 14L14 12L12.5 10.5L13 9.5H15V6.5H13L12.5 5.5L14 4L12 2L10.5 3.5L9.5 3V1H6.5Z" stroke="white" stroke-linecap="round" stroke-linejoin="round"/>
<path d="M8 10C9.10457 10 10 9.10457 10 8C10 6.89543 9.10457 6 8 6C6.89543 6 6 6.89543 6 8C6 9.10457 6.89543 10 8 10Z" stroke="white" stroke-linecap="round" stroke-linejoin="round"/>
</svg>
